<svg width="1440" height="1024" viewBox="0 0 1440 1024" fill="none" xmlns="http://www.w3.org/2000/svg">
<rect width="1440" height="1024" fill="#D5D5D5"/>
<rect width="1440" height="1024" fill="white"/>
<rect width="1440" height="1024" fill="#CDBEE6"/>
<path d="M595.562 429.391L527.781 616H500.078L578.125 411.25H595.984L595.562 429.391ZM652.375 616L584.453 429.391L584.031 411.25H601.891L680.219 616H652.375ZM648.859 540.203V562.422H533.828V540.203H648.859ZM783.156 535.703H728.453V513.625H783.156C793.75 513.625 802.328 511.938 808.891 508.562C815.453 505.188 820.234 500.5 823.234 494.5C826.328 488.5 827.875 481.656 827.875 473.969C827.875 466.938 826.328 460.328 823.234 454.141C820.234 447.953 815.453 442.984 808.891 439.234C802.328 435.391 793.75 433.469 783.156 433.469H734.781V616H707.641V411.25H783.156C798.625 411.25 811.703 413.922 822.391 419.266C833.078 424.609 841.188 432.016 846.719 441.484C852.25 450.859 855.016 461.594 855.016 473.688C855.016 486.812 852.25 498.016 846.719 507.297C841.188 516.578 833.078 523.656 822.391 528.531C811.703 533.312 798.625 535.703 783.156 535.703ZM918.438 411.25V616H891.297V411.25H918.438Z" fill="black"/>
</svg>
